<svg id="Слой_1" xmlns="http://www.w3.org/2000/svg" viewBox="0 0 300 300"><style>.st0{fill:#fff}</style><path class="st0" d="M132 199.5v-15c-15.6 0-28.5-12.9-28.5-28.5V72c0-15.6 12.9-28.5 28.5-28.5h36c15.6 0 28.5 12.9 28.5 28.5v84c0 15.6-12.9 28.5-28.5 28.5v15c24 0 43.5-19.5 43.5-43.5V72c0-24-19.5-43.5-43.5-43.5h-36C108 28.5 88.5 48 88.5 72v84c0 24 19.5 43.5 43.5 43.5z"/><path class="st0" d="M143.7 82.2c.3.3.6.9.9 1.2 1.5 1.5 3.3 2.1 5.4 2.1h1.5c.6 0 .9-.3 1.5-.3.3-.3.9-.3 1.2-.6.3-.3.9-.6 1.2-.9.3-.3.6-.6.9-1.2.3-.3.6-.9.6-1.2.3-.6.3-.9.3-1.5v-1.5c0-2.1-.9-3.9-2.1-5.4-.3-.3-.6-.6-1.2-.9-.3-.3-.9-.6-1.2-.6-.6-.3-.9-.3-1.5-.3-2.4-.6-5.1.3-6.9 2.1-1.5 1.5-2.1 3.3-2.1 5.4v1.5c0 .6.3.9.3 1.5.9-.3.9 0 1.2.6z"/><circle class="st0" cx="150" cy="148.5" r="7.5"/><circle class="st0" cx="150" cy="113.4" r="7.5"/><path class="st0" d="M142.5 184.5c.3 3.9 3.6 6.6 7.5 6.6s6.9-3 7.5-6.6v-.6c0-4.2-3.3-7.5-7.5-7.5s-7.5 3.3-7.5 7.5v.6zm2.1 39.9c.3.3.6.6 1.2.9.3.3.9.6 1.2.6.6.3.9.3 1.5.3h1.5c2.1 0 3.9-.9 5.4-2.1 1.5-1.5 2.1-3.3 2.1-5.4 0-2.1-.9-3.9-2.1-5.4-2.7-2.7-7.8-2.7-10.5 0-1.5 1.5-2.1 3.3-2.1 5.4 0 2.1.6 4.2 1.8 5.7zm-21 13.2c-3 3-3 7.8 0 10.5l21 21c1.5 1.5 3.3 2.1 5.4 2.1s3.9-.6 5.4-2.1l21-21c3-3 3-7.8 0-10.5s-7.8-3-10.5 0L150 253.5l-15.6-15.6c-3-3-7.8-3-10.8-.3z"/></svg>